<svg xmlns="http://www.w3.org/2000/svg" viewBox="0 0 500 120" width="500" height="120">
  <defs>
    <linearGradient id="hLeftWing" x1="0%" y1="0%" x2="100%" y2="100%">
      <stop offset="0%" stop-color="#1E3A8A"/>
      <stop offset="50%" stop-color="#1D4ED8"/>
      <stop offset="100%" stop-color="#2563EB"/>
    </linearGradient>

    <linearGradient id="hRightWing" x1="0%" y1="100%" x2="100%" y2="0%">
      <stop offset="0%" stop-color="#0284C7"/>
      <stop offset="50%" stop-color="#0EA5E9"/>
      <stop offset="100%" stop-color="#00D2FF"/>
    </linearGradient>

    <linearGradient id="hCenterLeft" x1="0%" y1="0%" x2="100%" y2="100%">
      <stop offset="0%" stop-color="#38BDF8"/>
      <stop offset="100%" stop-color="#0284C7"/>
    </linearGradient>

    <linearGradient id="hCenterRight" x1="0%" y1="0%" x2="100%" y2="100%">
      <stop offset="0%" stop-color="#E0F2FE"/>
      <stop offset="50%" stop-color="#38BDF8"/>
      <stop offset="100%" stop-color="#00D2FF"/>
    </linearGradient>

    <linearGradient id="hTextGrad" x1="0%" y1="0%" x2="100%" y2="0%">
      <stop offset="0%" stop-color="#0284C7"/>
      <stop offset="50%" stop-color="#0EA5E9"/>
      <stop offset="100%" stop-color="#00D2FF"/>
    </linearGradient>

    <filter id="hShadow" x="-15%" y="-15%" width="130%" height="130%">
      <feDropShadow dx="0" dy="6" stdDeviation="8" flood-color="#0284C7" flood-opacity="0.15"/>
    </filter>
  </defs>

  <g transform="translate(10, 10)" filter="url(#hShadow)">
    <rect width="100" height="100" rx="26" fill="#FFFFFF" stroke="#E2E8F0" stroke-width="1.5"/>
    <g transform="translate(-15, -15) scale(0.8)">
      <path d="M 38 122 L 38 56 C 38 46 47 40 56 46 L 80 64 L 80 84 L 56 65 C 54 63 52 65 52 68 L 52 122 Z" fill="url(#hLeftWing)"/>
      <path d="M 122 122 L 122 56 C 122 46 113 40 104 46 L 80 64 L 80 84 L 104 65 C 106 63 108 65 108 68 L 108 122 Z" fill="url(#hRightWing)"/>
      <path d="M 80 64 L 80 106 L 64 68 Z" fill="url(#hCenterLeft)" opacity="0.95"/>
      <path d="M 80 64 L 96 68 L 80 106 Z" fill="url(#hCenterRight)"/>
      <polygon points="80,42 86,52 96,54 88,61 90,71 80,65 70,71 72,61 64,54 74,52" fill="#00D2FF" opacity="0.9"/>
      <polygon points="80,45 84,52 91,54 86,59 87,66 80,62 73,66 74,59 69,54 76,52" fill="#FFFFFF" opacity="0.95"/>
    </g>
  </g>

  <g transform="translate(130, 0)">
    <text x="0" y="58" font-family="'Plus Jakarta Sans', 'Inter', -apple-system, 'Segoe UI', Roboto, sans-serif" font-size="34" font-weight="900" letter-spacing="2">
      <tspan fill="#0F172A">MAVEN </tspan>
      <tspan fill="url(#hTextGrad)">ENGLISH</tspan>
    </text>

    <rect x="0" y="74" width="180" height="24" rx="12" fill="#F0F9FF" stroke="#BAE6FD" stroke-width="1"/>
    <text x="90" y="90" text-anchor="middle" font-family="'Plus Jakarta Sans', 'Inter', -apple-system, 'Segoe UI', Roboto, sans-serif" font-size="10" font-weight="800" fill="#0369A1" letter-spacing="3">ACADEMIA DE INGLÉS</text>
  </g>
</svg>